<mxfile host="Electron" modified="2024-01-11T06:54:46.926Z" agent="Mozilla/5.0 (Windows NT 10.0; Win64; x64) AppleWebKit/537.36 (KHTML, like Gecko) draw.io/22.1.16 Chrome/120.0.6099.109 Electron/28.1.0 Safari/537.36" etag="3qdMAVF_R0COVik_VrDW" version="22.1.16" type="device">
  <diagram name="Seite-1" id="9rntg65Z23CcWuvpMiNV">
    <mxGraphModel dx="1036" dy="606" grid="1" gridSize="10" guides="1" tooltips="1" connect="1" arrows="1" fold="1" page="1" pageScale="1" pageWidth="827" pageHeight="1169" math="0" shadow="0">
      <root>
        <mxCell id="0" />
        <mxCell id="1" parent="0" />
        <mxCell id="_VooX8epX2ALqh-R9L1_-50" style="edgeStyle=orthogonalEdgeStyle;rounded=0;orthogonalLoop=1;jettySize=auto;html=1;entryX=0.5;entryY=0;entryDx=0;entryDy=0;" parent="1" source="_VooX8epX2ALqh-R9L1_-1" target="_VooX8epX2ALqh-R9L1_-47" edge="1">
          <mxGeometry relative="1" as="geometry" />
        </mxCell>
        <mxCell id="_VooX8epX2ALqh-R9L1_-1" value="Software entwickeln" style="html=1;align=center;verticalAlign=top;rounded=1;absoluteArcSize=1;arcSize=10;dashed=0;whiteSpace=wrap;" parent="1" vertex="1">
          <mxGeometry x="344" y="627" width="140" height="40" as="geometry" />
        </mxCell>
        <mxCell id="_VooX8epX2ALqh-R9L1_-46" style="edgeStyle=orthogonalEdgeStyle;rounded=0;orthogonalLoop=1;jettySize=auto;html=1;entryX=0.5;entryY=0;entryDx=0;entryDy=0;" parent="1" source="_VooX8epX2ALqh-R9L1_-2" target="_VooX8epX2ALqh-R9L1_-17" edge="1">
          <mxGeometry relative="1" as="geometry" />
        </mxCell>
        <mxCell id="_VooX8epX2ALqh-R9L1_-2" value="Anwender zur Software schulen" style="html=1;align=center;verticalAlign=top;rounded=1;absoluteArcSize=1;arcSize=10;dashed=0;whiteSpace=wrap;" parent="1" vertex="1">
          <mxGeometry x="344" y="760" width="140" height="40" as="geometry" />
        </mxCell>
        <mxCell id="_VooX8epX2ALqh-R9L1_-16" style="edgeStyle=orthogonalEdgeStyle;rounded=0;orthogonalLoop=1;jettySize=auto;html=1;entryX=0.5;entryY=0;entryDx=0;entryDy=0;" parent="1" source="_VooX8epX2ALqh-R9L1_-3" target="_VooX8epX2ALqh-R9L1_-15" edge="1">
          <mxGeometry relative="1" as="geometry" />
        </mxCell>
        <mxCell id="_VooX8epX2ALqh-R9L1_-3" value="Prüfen ob Software auf PC installiert" style="html=1;align=center;verticalAlign=top;rounded=1;absoluteArcSize=1;arcSize=10;dashed=0;whiteSpace=wrap;" parent="1" vertex="1">
          <mxGeometry x="344" y="220" width="140" height="40" as="geometry" />
        </mxCell>
        <mxCell id="_VooX8epX2ALqh-R9L1_-14" style="edgeStyle=orthogonalEdgeStyle;rounded=0;orthogonalLoop=1;jettySize=auto;html=1;entryX=0.5;entryY=0;entryDx=0;entryDy=0;" parent="1" source="_VooX8epX2ALqh-R9L1_-4" target="_VooX8epX2ALqh-R9L1_-3" edge="1">
          <mxGeometry relative="1" as="geometry" />
        </mxCell>
        <mxCell id="_VooX8epX2ALqh-R9L1_-4" value="Jemand wünscht Software" style="html=1;align=center;verticalAlign=top;rounded=1;absoluteArcSize=1;arcSize=10;dashed=0;whiteSpace=wrap;" parent="1" vertex="1">
          <mxGeometry x="344" y="144" width="140" height="40" as="geometry" />
        </mxCell>
        <mxCell id="MN614QI1V3MNpMSAiUr1-7" style="edgeStyle=orthogonalEdgeStyle;rounded=0;orthogonalLoop=1;jettySize=auto;html=1;entryX=0.26;entryY=0.611;entryDx=0;entryDy=0;entryPerimeter=0;" edge="1" parent="1" source="_VooX8epX2ALqh-R9L1_-5" target="MN614QI1V3MNpMSAiUr1-8">
          <mxGeometry relative="1" as="geometry">
            <mxPoint x="340" y="517" as="targetPoint" />
          </mxGeometry>
        </mxCell>
        <mxCell id="_VooX8epX2ALqh-R9L1_-5" value="Archiv 1 auf Software prüfen" style="html=1;align=center;verticalAlign=top;rounded=1;absoluteArcSize=1;arcSize=10;dashed=0;whiteSpace=wrap;" parent="1" vertex="1">
          <mxGeometry x="261" y="411" width="140" height="40" as="geometry" />
        </mxCell>
        <mxCell id="_VooX8epX2ALqh-R9L1_-9" value="" style="ellipse;html=1;shape=endState;fillColor=strokeColor;" parent="1" vertex="1">
          <mxGeometry x="399" y="891" width="30" height="30" as="geometry" />
        </mxCell>
        <mxCell id="_VooX8epX2ALqh-R9L1_-11" style="edgeStyle=orthogonalEdgeStyle;rounded=0;orthogonalLoop=1;jettySize=auto;html=1;entryX=0.5;entryY=0;entryDx=0;entryDy=0;" parent="1" source="_VooX8epX2ALqh-R9L1_-10" target="_VooX8epX2ALqh-R9L1_-4" edge="1">
          <mxGeometry relative="1" as="geometry" />
        </mxCell>
        <mxCell id="_VooX8epX2ALqh-R9L1_-10" value="" style="ellipse;fillColor=strokeColor;html=1;" parent="1" vertex="1">
          <mxGeometry x="399" y="81" width="30" height="30" as="geometry" />
        </mxCell>
        <mxCell id="_VooX8epX2ALqh-R9L1_-49" style="edgeStyle=orthogonalEdgeStyle;rounded=0;orthogonalLoop=1;jettySize=auto;html=1;entryX=0;entryY=0.5;entryDx=0;entryDy=0;" parent="1" source="_VooX8epX2ALqh-R9L1_-12" target="_VooX8epX2ALqh-R9L1_-47" edge="1">
          <mxGeometry relative="1" as="geometry">
            <Array as="points">
              <mxPoint x="210" y="714" />
            </Array>
          </mxGeometry>
        </mxCell>
        <mxCell id="_VooX8epX2ALqh-R9L1_-12" value="Software herunterladen und installieren" style="html=1;dashed=0;rounded=1;absoluteArcSize=1;arcSize=20;verticalAlign=middle;align=center;whiteSpace=wrap;" parent="1" vertex="1">
          <mxGeometry x="129" y="621" width="160" height="50" as="geometry" />
        </mxCell>
        <mxCell id="_VooX8epX2ALqh-R9L1_-13" value="*" style="text;resizeWidth=0;resizeHeight=0;points=[];part=1;verticalAlign=middle;align=center;html=1;" parent="_VooX8epX2ALqh-R9L1_-12" vertex="1">
          <mxGeometry x="1" y="0.5" width="20" height="20" relative="1" as="geometry">
            <mxPoint x="-20" y="-10" as="offset" />
          </mxGeometry>
        </mxCell>
        <mxCell id="_VooX8epX2ALqh-R9L1_-20" style="edgeStyle=orthogonalEdgeStyle;rounded=0;orthogonalLoop=1;jettySize=auto;html=1;entryX=1;entryY=0.5;entryDx=0;entryDy=0;" parent="1" target="_VooX8epX2ALqh-R9L1_-17" edge="1">
          <mxGeometry relative="1" as="geometry">
            <mxPoint x="429" y="847" as="targetPoint" />
            <mxPoint x="429" y="306.0000000000001" as="sourcePoint" />
            <Array as="points">
              <mxPoint x="600" y="306" />
              <mxPoint x="600" y="846" />
            </Array>
          </mxGeometry>
        </mxCell>
        <mxCell id="_VooX8epX2ALqh-R9L1_-42" value="JA" style="edgeLabel;html=1;align=center;verticalAlign=middle;resizable=0;points=[];" parent="_VooX8epX2ALqh-R9L1_-20" vertex="1" connectable="0">
          <mxGeometry x="-0.8126" y="1" relative="1" as="geometry">
            <mxPoint as="offset" />
          </mxGeometry>
        </mxCell>
        <mxCell id="_VooX8epX2ALqh-R9L1_-15" value="" style="rhombus;" parent="1" vertex="1">
          <mxGeometry x="399" y="290" width="30" height="30" as="geometry" />
        </mxCell>
        <mxCell id="_VooX8epX2ALqh-R9L1_-18" style="edgeStyle=orthogonalEdgeStyle;rounded=0;orthogonalLoop=1;jettySize=auto;html=1;entryX=0.5;entryY=0;entryDx=0;entryDy=0;" parent="1" source="_VooX8epX2ALqh-R9L1_-17" target="_VooX8epX2ALqh-R9L1_-9" edge="1">
          <mxGeometry relative="1" as="geometry" />
        </mxCell>
        <mxCell id="_VooX8epX2ALqh-R9L1_-17" value="" style="rhombus;" parent="1" vertex="1">
          <mxGeometry x="399" y="830" width="30" height="30" as="geometry" />
        </mxCell>
        <mxCell id="_VooX8epX2ALqh-R9L1_-31" style="edgeStyle=orthogonalEdgeStyle;rounded=0;orthogonalLoop=1;jettySize=auto;html=1;exitX=0.5;exitY=1;exitDx=0;exitDy=0;entryX=0.26;entryY=0.431;entryDx=0;entryDy=0;entryPerimeter=0;" parent="1" source="_VooX8epX2ALqh-R9L1_-21" target="MN614QI1V3MNpMSAiUr1-8" edge="1">
          <mxGeometry relative="1" as="geometry">
            <mxPoint x="410" y="527" as="targetPoint" />
          </mxGeometry>
        </mxCell>
        <mxCell id="_VooX8epX2ALqh-R9L1_-21" value="Archiv 2 auf Software prüfen" style="html=1;align=center;verticalAlign=top;rounded=1;absoluteArcSize=1;arcSize=10;dashed=0;whiteSpace=wrap;" parent="1" vertex="1">
          <mxGeometry x="427" y="411" width="140" height="36" as="geometry" />
        </mxCell>
        <mxCell id="_VooX8epX2ALqh-R9L1_-34" style="edgeStyle=orthogonalEdgeStyle;rounded=0;orthogonalLoop=1;jettySize=auto;html=1;entryX=0.5;entryY=0;entryDx=0;entryDy=0;" parent="1" source="_VooX8epX2ALqh-R9L1_-30" target="_VooX8epX2ALqh-R9L1_-12" edge="1">
          <mxGeometry relative="1" as="geometry">
            <mxPoint x="224" y="576" as="targetPoint" />
          </mxGeometry>
        </mxCell>
        <mxCell id="_VooX8epX2ALqh-R9L1_-38" value="Software gefunden" style="edgeLabel;html=1;align=center;verticalAlign=middle;resizable=0;points=[];" parent="_VooX8epX2ALqh-R9L1_-34" vertex="1" connectable="0">
          <mxGeometry x="-0.4971" y="-1" relative="1" as="geometry">
            <mxPoint as="offset" />
          </mxGeometry>
        </mxCell>
        <mxCell id="_VooX8epX2ALqh-R9L1_-53" style="edgeStyle=orthogonalEdgeStyle;rounded=0;orthogonalLoop=1;jettySize=auto;html=1;entryX=0.5;entryY=0;entryDx=0;entryDy=0;" parent="1" source="_VooX8epX2ALqh-R9L1_-30" target="_VooX8epX2ALqh-R9L1_-1" edge="1">
          <mxGeometry relative="1" as="geometry" />
        </mxCell>
        <mxCell id="_VooX8epX2ALqh-R9L1_-54" value="Keine Software :(" style="edgeLabel;html=1;align=center;verticalAlign=middle;resizable=0;points=[];" parent="_VooX8epX2ALqh-R9L1_-53" vertex="1" connectable="0">
          <mxGeometry x="-0.5833" y="-1" relative="1" as="geometry">
            <mxPoint as="offset" />
          </mxGeometry>
        </mxCell>
        <mxCell id="_VooX8epX2ALqh-R9L1_-30" value="" style="rhombus;" parent="1" vertex="1">
          <mxGeometry x="399" y="552" width="30" height="30" as="geometry" />
        </mxCell>
        <mxCell id="_VooX8epX2ALqh-R9L1_-48" style="edgeStyle=orthogonalEdgeStyle;rounded=0;orthogonalLoop=1;jettySize=auto;html=1;entryX=0.5;entryY=0;entryDx=0;entryDy=0;" parent="1" source="_VooX8epX2ALqh-R9L1_-47" target="_VooX8epX2ALqh-R9L1_-2" edge="1">
          <mxGeometry relative="1" as="geometry" />
        </mxCell>
        <mxCell id="_VooX8epX2ALqh-R9L1_-47" value="" style="rhombus;" parent="1" vertex="1">
          <mxGeometry x="399" y="699" width="30" height="30" as="geometry" />
        </mxCell>
        <mxCell id="MN614QI1V3MNpMSAiUr1-9" style="edgeStyle=orthogonalEdgeStyle;rounded=0;orthogonalLoop=1;jettySize=auto;html=1;entryX=0.5;entryY=0;entryDx=0;entryDy=0;" edge="1" parent="1" source="MN614QI1V3MNpMSAiUr1-5" target="_VooX8epX2ALqh-R9L1_-21">
          <mxGeometry relative="1" as="geometry" />
        </mxCell>
        <mxCell id="MN614QI1V3MNpMSAiUr1-10" style="edgeStyle=orthogonalEdgeStyle;rounded=0;orthogonalLoop=1;jettySize=auto;html=1;entryX=0.5;entryY=0;entryDx=0;entryDy=0;" edge="1" parent="1" source="MN614QI1V3MNpMSAiUr1-5" target="_VooX8epX2ALqh-R9L1_-5">
          <mxGeometry relative="1" as="geometry" />
        </mxCell>
        <mxCell id="MN614QI1V3MNpMSAiUr1-5" value="" style="html=1;points=[];perimeter=orthogonalPerimeter;fillColor=strokeColor;rotation=90;" vertex="1" parent="1">
          <mxGeometry x="413" y="317" width="5" height="80" as="geometry" />
        </mxCell>
        <mxCell id="MN614QI1V3MNpMSAiUr1-6" style="edgeStyle=orthogonalEdgeStyle;rounded=0;orthogonalLoop=1;jettySize=auto;html=1;entryX=-0.1;entryY=0.516;entryDx=0;entryDy=0;entryPerimeter=0;" edge="1" parent="1" source="_VooX8epX2ALqh-R9L1_-15" target="MN614QI1V3MNpMSAiUr1-5">
          <mxGeometry relative="1" as="geometry" />
        </mxCell>
        <mxCell id="MN614QI1V3MNpMSAiUr1-16" style="edgeStyle=orthogonalEdgeStyle;rounded=0;orthogonalLoop=1;jettySize=auto;html=1;entryX=0.5;entryY=0;entryDx=0;entryDy=0;" edge="1" parent="1" source="MN614QI1V3MNpMSAiUr1-8" target="_VooX8epX2ALqh-R9L1_-30">
          <mxGeometry relative="1" as="geometry" />
        </mxCell>
        <mxCell id="MN614QI1V3MNpMSAiUr1-8" value="" style="html=1;points=[];perimeter=orthogonalPerimeter;fillColor=strokeColor;rotation=90;" vertex="1" parent="1">
          <mxGeometry x="412" y="472" width="5" height="80" as="geometry" />
        </mxCell>
        <mxCell id="MN614QI1V3MNpMSAiUr1-11" value="Die Archive werden gleichzeitig durchsucht hieß es. Warum sollte man auch sinnvoll vorgehen?" style="text;html=1;strokeColor=none;fillColor=none;align=center;verticalAlign=middle;whiteSpace=wrap;rounded=0;" vertex="1" parent="1">
          <mxGeometry x="164" y="300" width="180" height="60" as="geometry" />
        </mxCell>
      </root>
    </mxGraphModel>
  </diagram>
</mxfile>
